REM DIRINDEX 1\2,1\3
REM DIRNAME folder01,folder02,folder03
TITLE ""
FILE "0921-0960.mp3" MP3
  TRACK 01 AUDIO
    TITLE "0:"
    INDEX 01 00:00:00
  TRACK 02 AUDIO
    TITLE "2:cjc039_0921"
    INDEX 01 00:00:23
  TRACK 03 AUDIO
    TITLE "0:"
    INDEX 01 00:01:44
  TRACK 04 AUDIO
    TITLE "2:cjc039_0922"
    INDEX 01 00:02:18
  TRACK 05 AUDIO
    TITLE "0:"
    INDEX 01 00:03:53
  TRACK 06 AUDIO
    TITLE "2:cjc039_0923"
    INDEX 01 00:04:25
  TRACK 07 AUDIO
    TITLE "0:"
    INDEX 01 00:05:46
  TRACK 08 AUDIO
    TITLE "2:cjc039_0924"
    INDEX 01 00:06:24
  TRACK 09 AUDIO
    TITLE "0:"
    INDEX 01 00:07:41
  TRACK 10 AUDIO
    TITLE "2:cjc039_0925"
    INDEX 01 00:08:21
  TRACK 11 AUDIO
    TITLE "0:"
    INDEX 01 00:09:40
  TRACK 12 AUDIO
    TITLE "2:cjc039_0926"
    INDEX 01 00:10:12
  TRACK 13 AUDIO
    TITLE "0:"
    INDEX 01 00:11:19
  TRACK 14 AUDIO
    TITLE "2:cjc039_0927"
    INDEX 01 00:11:68
  TRACK 15 AUDIO
    TITLE "0:"
    INDEX 01 00:13:16
  TRACK 16 AUDIO
    TITLE "2:cjc039_0928"
    INDEX 01 00:13:69
  TRACK 17 AUDIO
    TITLE "0:"
    INDEX 01 00:15:11
  TRACK 18 AUDIO
    TITLE "2:cjc039_0929"
    INDEX 01 00:15:64
  TRACK 19 AUDIO
    TITLE "0:"
    INDEX 01 00:17:04
  TRACK 20 AUDIO
    TITLE "2:cjc039_0930"
    INDEX 01 00:17:59
  TRACK 21 AUDIO
    TITLE "0:"
    INDEX 01 00:19:15
  TRACK 22 AUDIO
    TITLE "2:cjc039_0931"
    INDEX 01 00:19:62
  TRACK 23 AUDIO
    TITLE "0:"
    INDEX 01 00:21:23
  TRACK 24 AUDIO
    TITLE "2:cjc039_0932"
    INDEX 01 00:21:74
  TRACK 25 AUDIO
    TITLE "0:"
    INDEX 01 00:23:10
  TRACK 26 AUDIO
    TITLE "2:cjc039_0933"
    INDEX 01 00:23:69
  TRACK 27 AUDIO
    TITLE "0:"
    INDEX 01 00:25:31
  TRACK 28 AUDIO
    TITLE "2:cjc039_0934"
    INDEX 01 00:26:09
  TRACK 29 AUDIO
    TITLE "0:"
    INDEX 01 00:27:34
  TRACK 30 AUDIO
    TITLE "2:cjc039_0935"
    INDEX 01 00:28:13
  TRACK 31 AUDIO
    TITLE "0:"
    INDEX 01 00:29:50
  TRACK 32 AUDIO
    TITLE "2:cjc039_0936"
    INDEX 01 00:30:28
  TRACK 33 AUDIO
    TITLE "0:"
    INDEX 01 00:31:61
  TRACK 34 AUDIO
    TITLE "2:cjc039_0937"
    INDEX 01 00:32:37
  TRACK 35 AUDIO
    TITLE "0:"
    INDEX 01 00:33:62
  TRACK 36 AUDIO
    TITLE "2:cjc039_0938"
    INDEX 01 00:34:40
  TRACK 37 AUDIO
    TITLE "0:"
    INDEX 01 00:35:68
  TRACK 38 AUDIO
    TITLE "2:cjc039_0939"
    INDEX 01 00:36:44
  TRACK 39 AUDIO
    TITLE "0:"
    INDEX 01 00:37:71
  TRACK 40 AUDIO
    TITLE "2:cjc039_0940"
    INDEX 01 00:38:51
  TRACK 41 AUDIO
    TITLE "0:"
    INDEX 01 00:40:07
  TRACK 42 AUDIO
    TITLE "2:cjc039_0941"
    INDEX 01 00:40:62
  TRACK 43 AUDIO
    TITLE "0:"
    INDEX 01 00:42:04
  TRACK 44 AUDIO
    TITLE "2:cjc039_0942"
    INDEX 01 00:42:59
  TRACK 45 AUDIO
    TITLE "0:"
    INDEX 01 00:43:70
  TRACK 46 AUDIO
    TITLE "2:cjc039_0943"
    INDEX 01 00:44:52
  TRACK 47 AUDIO
    TITLE "0:"
    INDEX 01 00:45:73
  TRACK 48 AUDIO
    TITLE "2:cjc039_0944"
    INDEX 01 00:46:47
  TRACK 49 AUDIO
    TITLE "0:"
    INDEX 01 00:47:64
  TRACK 50 AUDIO
    TITLE "2:cjc039_0945"
    INDEX 01 00:48:51
  TRACK 51 AUDIO
    TITLE "0:"
    INDEX 01 00:49:74
  TRACK 52 AUDIO
    TITLE "2:cjc039_0946"
    INDEX 01 00:50:58
  TRACK 53 AUDIO
    TITLE "0:"
    INDEX 01 00:52:14
  TRACK 54 AUDIO
    TITLE "2:cjc039_0947"
    INDEX 01 00:52:65
  TRACK 55 AUDIO
    TITLE "0:"
    INDEX 01 00:54:05
  TRACK 56 AUDIO
    TITLE "2:cjc039_0948"
    INDEX 01 00:54:60
  TRACK 57 AUDIO
    TITLE "0:"
    INDEX 01 00:56:08
  TRACK 58 AUDIO
    TITLE "2:cjc039_0949"
    INDEX 01 00:56:61
  TRACK 59 AUDIO
    TITLE "0:"
    INDEX 01 00:58:01
  TRACK 60 AUDIO
    TITLE "2:cjc039_0950"
    INDEX 01 00:58:50
  TRACK 61 AUDIO
    TITLE "0:"
    INDEX 01 00:59:71
  TRACK 62 AUDIO
    TITLE "2:cjc039_0951"
    INDEX 01 01:00:37
  TRACK 63 AUDIO
    TITLE "0:"
    INDEX 01 01:01:44
  TRACK 64 AUDIO
    TITLE "2:cjc039_0952"
    INDEX 01 01:02:22
  TRACK 65 AUDIO
    TITLE "0:"
    INDEX 01 01:03:35
  TRACK 66 AUDIO
    TITLE "2:cjc039_0953"
    INDEX 01 01:04:11
  TRACK 67 AUDIO
    TITLE "0:"
    INDEX 01 01:05:38
  TRACK 68 AUDIO
    TITLE "2:cjc039_0954"
    INDEX 01 01:06:16
  TRACK 69 AUDIO
    TITLE "0:"
    INDEX 01 01:07:41
  TRACK 70 AUDIO
    TITLE "2:cjc039_0955"
    INDEX 01 01:08:17
  TRACK 71 AUDIO
    TITLE "0:"
    INDEX 01 01:09:26
  TRACK 72 AUDIO
    TITLE "2:cjc039_0956"
    INDEX 01 01:10:06
  TRACK 73 AUDIO
    TITLE "0:"
    INDEX 01 01:11:23
  TRACK 74 AUDIO
    TITLE "2:cjc039_0957"
    INDEX 01 01:12:01
  TRACK 75 AUDIO
    TITLE "0:"
    INDEX 01 01:13:14
  TRACK 76 AUDIO
    TITLE "2:cjc039_0958"
    INDEX 01 01:13:57
  TRACK 77 AUDIO
    TITLE "0:"
    INDEX 01 01:15:25
  TRACK 78 AUDIO
    TITLE "2:cjc039_0959"
    INDEX 01 01:15:74
  TRACK 79 AUDIO
    TITLE "0:"
    INDEX 01 01:17:30
  TRACK 80 AUDIO
    TITLE "2:cjc039_0960"
    INDEX 01 01:18:07
  TRACK 81 AUDIO
    TITLE "0:"
    INDEX 01 01:19:52
